<?xml version="1.0" standalone="no"?>
<!DOCTYPE svg PUBLIC "-//W3C//DTD SVG 20010904//EN"
 "http://www.w3.org/TR/2001/REC-SVG-20010904/DTD/svg10.dtd">
<svg version="1.0" xmlns="http://www.w3.org/2000/svg"
 width="100" height="100" viewBox="0 0 512.000000 512.000000"
 preserveAspectRatio="xMidYMid meet">

<g transform="translate(0.000000,512.000000) scale(0.100000,-0.100000)"
fill="#ffffff" color="#7ED321" stroke="none">
<path d="M1201 4464 c-70 -19 -111 -44 -160 -100 -82 -94 -76 58 -76 -1804 0
-1897 -9 -1717 94 -1821 103 -102 -32 -94 1501 -94 1533 0 1398 -8 1501 94
103 104 94 -76 94 1821 0 1897 9 1717 -94 1821 -103 103 36 94 -1481 96 -1137
2 -1333 0 -1379 -13z m795 -320 c19 -9 44 -31 57 -48 21 -30 22 -39 22 -256 0
-217 -1 -226 -22 -256 -42 -58 -69 -64 -293 -64 -224 0 -251 6 -293 64 -21 30
-22 39 -22 256 0 216 1 226 22 256 42 58 66 64 291 64 168 0 210 -3 238 -16z
m800 0 c19 -9 44 -31 57 -48 21 -30 22 -39 22 -256 0 -217 -1 -226 -22 -256
-42 -58 -69 -64 -293 -64 -224 0 -251 6 -293 64 -21 30 -22 39 -22 256 0 216
1 226 22 256 42 58 66 64 291 64 168 0 210 -3 238 -16z m800 0 c19 -9 44 -31
57 -48 21 -30 22 -39 22 -256 0 -217 -1 -226 -22 -256 -42 -58 -69 -64 -293
-64 -224 0 -251 6 -293 64 -21 30 -22 39 -22 256 0 216 1 226 22 256 42 58 66
64 291 64 168 0 210 -3 238 -16z m-1600 -800 c19 -9 44 -31 57 -48 21 -30 22
-39 22 -256 0 -217 -1 -226 -22 -256 -42 -58 -69 -64 -293 -64 -224 0 -251 6
-293 64 -21 30 -22 39 -22 256 0 216 1 226 22 256 42 58 66 64 291 64 168 0
210 -3 238 -16z m800 0 c19 -9 44 -31 57 -48 21 -30 22 -39 22 -256 0 -217 -1
-226 -22 -256 -42 -58 -69 -64 -293 -64 -224 0 -251 6 -293 64 -21 30 -22 39
-22 256 0 216 1 226 22 256 42 58 66 64 291 64 168 0 210 -3 238 -16z m800 0
c19 -9 44 -31 57 -48 21 -30 22 -39 22 -256 0 -217 -1 -226 -22 -256 -42 -58
-69 -64 -293 -64 -224 0 -251 6 -293 64 -21 30 -22 39 -22 256 0 216 1 226 22
256 42 58 66 64 291 64 168 0 210 -3 238 -16z m-1600 -800 c19 -9 44 -31 57
-48 21 -30 22 -39 22 -256 0 -217 -1 -226 -22 -256 -42 -58 -69 -64 -293 -64
-224 0 -251 6 -293 64 -21 30 -22 39 -22 256 0 216 1 226 22 256 42 58 66 64
291 64 168 0 210 -3 238 -16z m800 0 c19 -9 44 -31 57 -48 21 -30 22 -39 22
-256 0 -217 -1 -226 -22 -256 -42 -58 -69 -64 -293 -64 -224 0 -251 6 -293 64
-21 30 -22 39 -22 256 0 216 1 226 22 256 42 58 66 64 291 64 168 0 210 -3
238 -16z m800 0 c19 -9 44 -31 57 -48 21 -30 22 -39 22 -256 0 -217 -1 -226
-22 -256 -42 -58 -69 -64 -293 -64 -224 0 -251 6 -293 64 -21 30 -22 39 -22
256 0 216 1 226 22 256 42 58 66 64 291 64 168 0 210 -3 238 -16z m-800 -800
c19 -9 44 -31 57 -48 21 -30 22 -39 22 -256 0 -217 -1 -226 -22 -256 -42 -58
-69 -64 -293 -64 -224 0 -251 6 -293 64 -21 30 -22 39 -22 256 0 216 1 226 22
256 42 58 66 64 291 64 168 0 210 -3 238 -16z"/>
</g>
</svg>
